<svg width="7" height="4" viewBox="0 0 7 4" fill="none" xmlns="http://www.w3.org/2000/svg">
<path d="M3.51017 3.99999C3.44907 4.00029 3.38852 3.98826 3.33209 3.96462C3.27565 3.94099 3.22447 3.90622 3.18153 3.86235L0.0811217 0.734043C0.019284 0.64276 -0.008621 0.532377 0.00232801 0.422362C0.013277 0.312346 0.0623769 0.209765 0.140968 0.132711C0.219559 0.0556575 0.322592 0.00908065 0.431896 0.00119536C0.541199 -0.00668993 0.649752 0.0246231 0.738408 0.0896116L3.51017 2.86755L6.28194 0.0896116C6.36934 0.0324319 6.47324 0.00651638 6.57698 0.0160186C6.68073 0.0255208 6.7783 0.0698907 6.85407 0.142017C6.92984 0.214142 6.97942 0.309847 6.99486 0.413792C7.0103 0.517737 6.99071 0.623903 6.93922 0.715273L3.83881 3.84358C3.79748 3.89085 3.747 3.92911 3.69049 3.95601C3.63398 3.98291 3.57262 3.99787 3.51017 3.99999Z" fill="#505258" fill-opacity="0.3"/>
</svg>
